<svg xmlns="http://www.w3.org/2000/svg" viewBox="0 0 24 30" enable-background="new 0 0 24 30"><title>Canvas 1</title><title>Layer 1</title><path fill="#EC413B" d="M24 12c0 6.627-12 18-12 18s-12-11.373-12-18c0-6.627 5.373-12 12-12s12 5.373 12 12z"/><path fill="#fff" d="M15.744 15.839c-1.172-1.172-3.071-1.172-4.243 0-1.172 1.172-1.172 3.071 0 4.243 1.172 1.172 3.071 1.172 4.243 0 1.171-1.172 1.171-3.072 0-4.243m2.503-4.804c-.781-.781-2.047-.781-2.828 0-.781.781-.781 2.047 0 2.828.781.781 2.047.781 2.828 0 .781-.78.781-2.047 0-2.828m-4.432-1.891c0-2.527-2.049-4.576-4.576-4.576-2.527 0-4.576 2.049-4.576 4.576 0 2.527 4.576 6.864 4.576 6.864s4.577-4.337 4.576-6.864z"/></svg>