<svg xmlns="http://www.w3.org/2000/svg" viewBox="0 0 24 30" enable-background="new 0 0 24 30"><title>Canvas 1</title><title>Layer 1</title><path fill="#005CAB" d="M24 12c0 6.627-12 18-12 18s-12-11.373-12-18c0-6.627 5.373-12 12-12s12 5.373 12 12z"/><path fill="#fff" d="M14.007 16.698c-1.172-1.172-3.071-1.172-4.243 0-1.172 1.172-1.172 3.071 0 4.243 1.172 1.172 3.071 1.172 4.243 0 1.172-1.172 1.172-3.071 0-4.243m5.293-4.083c-.781-.781-2.047-.781-2.828 0-.781.781-.781 2.047 0 2.828.781.781 2.047.781 2.828 0 .781-.78.781-2.047 0-2.828m-8.345-8.811l-1.904 3.879-4.278.612 3.101 3.01-.74 4.258 3.821-2.019 3.821 2.019-.74-4.258 3.101-3.01-4.278-.612-1.904-3.879z"/></svg>