<svg xmlns="http://www.w3.org/2000/svg" viewBox="0 0 24 30" enable-background="new 0 0 24 30"><title>Canvas 1</title><title>Layer 1</title><path fill="#203163" d="M24 12c0 6.627-12 18-12 18s-12-11.373-12-18c0-6.627 5.373-12 12-12s12 5.373 12 12z"/><path fill="#fff" d="M12.398 6.201c-1.562-1.562-4.095-1.562-5.657 0-1.562 1.562-1.562 4.095 0 5.657 1.562 1.562 4.095 1.562 5.657 0 1.562-1.562 1.562-4.095 0-5.657m.293 9.707c-1.172-1.172-3.071-1.172-4.243 0-1.172 1.172-1.172 3.071 0 4.243 1.172 1.172 3.071 1.172 4.243 0 1.171-1.172 1.171-3.071 0-4.243m5.292-3.293c-.781-.781-2.047-.781-2.828 0-.781.781-.781 2.047 0 2.828.781.781 2.047.781 2.828 0 .782-.78.782-2.047 0-2.828"/></svg>